<?xml version="1.0" encoding="UTF-8" standalone="no"?>
<!DOCTYPE svg PUBLIC "-//W3C//DTD SVG 1.1//EN" "http://www.w3.org/Graphics/SVG/1.1/DTD/svg11.dtd">
<svg width="100%" height="100%" viewBox="0 0 146 287" version="1.1" xmlns="http://www.w3.org/2000/svg" xmlns:xlink="http://www.w3.org/1999/xlink" xml:space="preserve" xmlns:serif="http://www.serif.com/" style="fill-rule:evenodd;clip-rule:evenodd;stroke-linejoin:round;stroke-miterlimit:2;">
    <g transform="matrix(1,0,0,1,-21.682,-9.18037)">
        <g transform="matrix(1,0,0,1,-292.196,-72.4779)">
            <path id="path4666" d="M374.573,367.097C355.176,362.673 337.791,346.928 326.51,323.566C312.508,294.571 310.117,262.679 319.484,229.874C323.504,215.795 330.828,199.256 349.399,162.316C369.251,122.826 375.416,109.866 382.672,92.362L387.109,81.658L390.901,90.862C397.995,108.08 404.093,121.026 422.26,157.441C432.24,177.447 441.46,196.243 442.747,199.209C458.538,235.591 462.658,260.249 457.823,289.441C451.299,328.825 428.334,359.628 400.209,366.716C393.507,368.405 381.117,368.589 374.573,367.097ZM380.655,351.504C382.67,344.284 381.937,331.628 378.806,319.568C377.208,313.416 377.237,312.713 379.073,313.066C380.052,313.255 380.573,312.951 380.573,312.193C380.573,311.473 380.997,311.193 381.686,311.458C382.891,311.92 384.685,309.383 383.97,308.227C382.799,306.333 385.23,307.177 389.582,310.176C394.955,313.879 401.005,317.132 407.012,319.547C411.788,321.467 420.804,323.911 423.179,323.928C426.164,323.951 424.308,322.702 419.406,321.391C414.982,320.208 410.696,318.609 404.573,315.857C402.116,314.753 385.144,303.901 384.323,302.909C384.116,302.661 383.402,302.256 382.734,302.011C382.067,301.765 381.331,300.777 381.099,299.815C380.866,298.853 380.308,296.607 379.858,294.823C379.408,293.04 378.857,289.834 378.634,287.698C378.41,285.563 378.093,282.972 377.928,281.941C377.764,280.91 377.476,278.547 377.288,276.691C376.633,270.224 376.043,266 375.724,265.484C375.124,264.513 374.599,254.191 375.15,254.203C376.168,254.224 378.002,255.667 377.026,255.68C376.317,255.688 376.301,256.121 376.954,257.556C377.849,259.519 381.221,262.169 382.379,261.818C382.754,261.705 383.339,262.052 383.68,262.589C384.021,263.126 384.305,263.218 384.311,262.792C384.317,262.367 385.151,261.95 386.164,261.866C389.04,261.628 389.9,261.374 390.567,260.566C390.965,260.085 391.333,260.183 391.595,260.839C391.941,261.702 392.116,261.702 392.721,260.839C393.249,260.084 393.533,260.051 393.803,260.712C394.211,261.708 396.073,261.246 397.883,259.701C398.536,259.144 399.295,258.914 399.571,259.19C399.847,259.465 400.073,259.297 400.073,258.816C400.073,257.851 402.95,257.646 404.31,258.515C404.784,258.818 405.302,259.91 405.462,260.941C405.695,262.445 405.998,262.009 406.996,258.74C408.192,254.82 407.959,251.471 406.723,254.813C406.093,256.518 402.944,257.05 400.954,255.788C400.379,255.424 397.061,255.751 393.079,256.565C389.294,257.338 385.703,258.049 385.099,258.144C384.225,258.281 383.984,257.211 383.922,252.931C383.874,249.621 383.454,247.077 382.832,246.327C381.919,245.227 382.006,245.193 383.717,245.973C385.242,246.667 386.077,246.598 387.969,245.62C389.263,244.95 390.323,244.054 390.323,243.628C390.323,243.201 390.648,243.054 391.045,243.299C391.443,243.545 392.427,243.087 393.233,242.281C394.038,241.475 394.862,240.981 395.064,241.182C395.265,241.384 395.653,240.531 395.926,239.288C396.2,238.044 396.822,237.148 397.31,237.296C397.798,237.445 399.156,237.777 400.328,238.035C401.789,238.356 402.327,238.848 402.039,239.598C401.809,240.199 401.908,240.691 402.261,240.691C402.614,240.691 403.135,239.141 403.419,237.247C403.966,233.596 403.544,232.026 402.716,234.635C402.164,236.371 401.502,236.496 398.069,235.512C396.075,234.94 395.454,235.096 394.135,236.5C393.273,237.417 391.243,238.912 389.623,239.823L386.677,241.478L386.66,236.227C386.652,233.339 386.29,230.316 385.858,229.508C384.834,227.595 384.857,227.434 386.236,226.905C386.876,226.659 387.204,226.775 386.965,227.162C386.726,227.549 387.187,228.218 387.991,228.648C389.06,229.22 389.534,229.182 389.759,228.506C390,227.783 390.492,227.778 392.042,228.484C393.297,229.056 394.184,229.117 394.472,228.651C394.722,228.247 395.251,228.118 395.65,228.364C396.072,228.625 396.229,228.017 396.027,226.904C395.717,225.19 395.826,225.087 397.108,225.888C398.292,226.627 398.721,226.526 399.625,225.297C400.225,224.483 400.914,222.773 401.155,221.499C401.397,220.224 402.424,218.402 403.437,217.451C404.964,216.016 405.474,215.883 406.425,216.673C408.486,218.383 407.684,216.105 405.517,214.096C403.062,211.82 400.593,211.365 402.574,213.555C403.74,214.843 403.534,215.156 398.878,219.18C396.167,221.524 393.659,223.441 393.305,223.441C392.951,223.441 392.057,221.406 391.319,218.919C390.581,216.432 389.038,213.369 387.89,212.113C385.522,209.519 385.753,208.442 388.679,208.438C390.347,208.436 390.925,207.882 392.01,205.243C392.732,203.487 393.322,201.525 393.322,200.883C393.322,199.614 404.273,190.435 412.048,185.187C414.716,183.387 419.021,181.018 421.614,179.924C426.968,177.665 428.513,176.56 425.196,177.363C419.97,178.627 411.453,183.672 399.07,192.84C395.837,195.233 392.873,197.191 392.484,197.191C391.167,197.191 390.864,194.845 391.81,191.978C392.539,189.769 392.551,188.811 391.862,187.722C391.096,186.511 391.028,186.651 391.373,188.724C391.771,191.12 390.616,192.88 389.661,191.334C388.959,190.198 385.008,188.717 382.987,188.831C381.515,188.914 381.386,188.724 382.059,187.467C382.489,186.663 383.424,185.679 384.138,185.279C384.851,184.88 385.183,184.302 384.876,183.994C384.1,183.219 380.572,186.671 380.572,188.206C380.572,188.895 379.93,190.04 379.145,190.75C377.768,191.996 377.665,191.901 376.221,188.042C375.398,185.842 374.337,182.528 373.863,180.679C371.719,172.304 364.233,156.691 362.363,156.691C362.009,156.691 362.38,157.619 363.188,158.754C365.278,161.69 370.464,173.567 371.784,178.441C374.629,188.941 374.812,191.73 372.989,196.891L371.299,201.679L373.014,203.504C374.789,205.393 374.506,207.364 372.567,206.62C371.96,206.387 370.791,206.556 369.97,206.996C368.899,207.569 368.189,207.556 367.458,206.95C366.648,206.277 366.519,206.405 366.825,207.576C367.09,208.59 366.75,209.192 365.73,209.516C364.916,209.774 363.484,210.651 362.547,211.463C361.61,212.276 360.614,212.941 360.334,212.941C360.054,212.941 359.466,211.507 359.028,209.754C358.589,208 357.773,205.416 357.214,204.011C356.41,201.992 356.394,201.389 357.135,201.136C358.422,200.697 358.319,199.441 356.996,199.441C356.404,199.441 354.97,199.813 353.809,200.268C351.788,201.06 351.766,201.122 353.286,201.707C355.086,202.401 356.158,206.11 354.717,206.662C353.446,207.15 353.65,211.877 354.931,211.613C355.639,211.467 355.719,211.759 355.216,212.657C354.231,214.418 355.006,216.877 356.379,216.35C357.141,216.058 357.354,216.277 357.058,217.049C356.821,217.667 356.867,218.137 357.162,218.093C358.976,217.823 360.322,218.344 360.322,219.316C360.322,219.941 360.989,220.441 361.822,220.441C362.647,220.441 363.322,220.104 363.322,219.691C363.322,219.279 363.799,218.941 364.381,218.941C366.337,218.941 365.147,222.774 362.564,224.796C361.219,225.848 359.385,228.373 358.487,230.408L356.854,234.108L355.702,232.337C355.068,231.363 354.133,229.295 353.624,227.74C353.048,225.986 351.919,224.512 350.643,223.852C347.48,222.217 346.44,220.681 347.572,219.316C348.086,218.697 348.176,218.191 347.773,218.191C346.908,218.191 343.072,222.667 343.072,223.677C343.072,224.061 343.579,223.955 344.198,223.441C345.1,222.692 345.581,222.711 346.625,223.537C350.209,226.368 350.758,227.151 350.324,228.812C349.811,230.77 352.8,237.44 353.606,236.137C353.911,235.643 354.278,235.939 354.523,236.878C354.832,238.057 355.53,238.441 357.369,238.441C359.622,238.441 359.72,238.54 358.668,239.754C356.527,242.225 353.74,247.815 353.247,250.629C352.976,252.175 352.573,253.441 352.352,253.441C352.131,253.441 349.998,252.297 347.612,250.898C341.999,247.609 340.479,247.112 335.947,247.087C332.637,247.069 332.169,246.868 331.958,245.379C331.826,244.45 331.404,243.691 331.02,243.691C330.205,243.691 330.078,249.683 330.851,251.692C331.311,252.891 331.434,252.827 331.818,251.191C332.173,249.672 332.78,249.272 335.014,249.085C337.417,248.883 337.832,249.094 338.241,250.723C338.703,252.561 342.263,254.587 344.443,254.252C344.991,254.167 345.628,254.823 345.86,255.708C346.175,256.914 346.435,257.068 346.897,256.321C347.383,255.534 347.735,255.626 348.562,256.758C349.579,258.149 353.573,258.962 353.573,257.778C353.573,257.455 354.068,257.191 354.673,257.191C355.278,257.191 356.937,256.026 358.361,254.603C361.83,251.134 362.935,252.255 361.727,258.019C360.68,263.017 360.632,275.623 361.648,279.037C362.062,280.428 362.817,283.591 363.326,286.066C364.35,291.039 364.891,292.426 370.058,303.316C374.258,312.166 375.412,315.653 377.634,326.191C379.332,334.247 379.987,348.441 378.853,352.629C378.52,353.856 378.592,354.691 379.029,354.691C379.434,354.691 380.165,353.257 380.655,351.504L380.655,351.504Z" style="fill-rule:nonzero;"/>
        </g>
    </g>
</svg>
