<?xml version="1.0" encoding="utf-8"?>
<!-- Generator: Adobe Illustrator 23.0.1, SVG Export Plug-In . SVG Version: 6.00 Build 0)  -->
<svg version="1.1" id="Layer_2" xmlns="http://www.w3.org/2000/svg" xmlns:xlink="http://www.w3.org/1999/xlink" x="0px" y="0px"
	 viewBox="0 0 720 627" style="enable-background:new 0 0 720 627;" xml:space="preserve">
<style type="text/css">
	.st0{fill:#00AAE5;}
	.st1{fill:#A0CF77;}
	.st2{fill:#73CDE1;}
	.st3{fill:#FFFFFF;}
	.st4{fill:#005826;}
	.st5{fill:#80C99B;}
	.st6{fill:#FFFDFD;}
</style>
<path class="st0" d="M496.3,235.2c0.6,2.7,1.5,5.3,2.7,7.6c30.7,1.3,62.2,7,93.9,17.1c5.6-9.5,11.2-19,16.9-28.7l-119.7-23
	C491.3,213.8,493.3,221.4,496.3,235.2z"/>
<path class="st1" d="M507.8,340.4c-1,22.2,6.4,34.6,13,41.1c11.5-19.2,23-38.6,34.6-58.1h-40.9c9.7,12,24.1,10.3,24.1,10.3
	C529.6,353.7,507.8,340.4,507.8,340.4z"/>
<path class="st2" d="M663.2,92.5c-4.7-8.4-16.1-22.5-39.5-22.5h-0.2c-0.4,0-70.6,0-164.5,0c-108.5,0-260.5,0-368.9-0.2H90
	c-13.3,0-24.5,6.6-31.7,18.5c-8.9,14.7-9.4,34.8-1.4,50L62,147c16.4,28,32.6,55.6,48.8,83.1l246.1-47.4l119.8,23
	c0.9-3.8,1.5-7.5,1.5-9.3c0-4.3,1.2-6-2.4-3c-3.6,3-6.6,4.2-6.6,4.2c0.6-7.3,10.9-15.9,10.9-15.9c1.6-4.9-0.2-10.7,2.8-13.7l1.7-1.2
	c0.5,0,2.4,0.7,2,6.8c-0.4,8.8,1.9,15.4,1.9,15.4c15.1,16.3,9,14.6,9,14.6c-2.4-3.6-8.5-4.2-8.5-4.2c0,2.8,0.4,5.4,1.1,8.8l119.7,23
	c17.4-29.7,35-59.8,53-90.7l0.1-0.1C671.5,126.4,671.6,107.6,663.2,92.5z"/>
<path d="M309.8,405.1"/>
<path class="st3" d="M450.1,201.9c-0.5,1-1.9,1.7-2.6,2.2c-4.8,2.9-10.4,3.3-16.1,2.4c-6.7-1.1-13.1-3.1-19.2-0.6
	c-1.2,0.5-3,1.2-3.7,2.7c-1.8,4.4,1.1,8.4,1.4,12.7c0,0.5-0.1,2-1.5,2.3c-11.5,2.5-20.5-5.4-29.8-10.5c-3.7-2-8.4-3.3-12.4-1.2
	c-10.3,5.4-10.7,17.5-16.6,26.9c-3.3,5.4-10.1,5.6-14.8,3.8c-4.6-1.9-5.4-8.1-4.2-13.3c1-4,2.2-8.4,0.7-12.1
	c-2.2-5.2-8.5-4.3-13-2.4c-7,3-19.3,12.6-22.8,3.2c-1.7-4.5,5.3-7.7,7.5-12.5c0.6-1.2,0.8-2.5,0.1-2.6c-8.7-1.3-18.8,4.3-25.9-2.1
	c-0.1-0.3-1.4-1.3-1.5-2.3l81.4-15.7l93.4,18L450.1,201.9z"/>
<path class="st4" d="M91,95.1v13.3c0,3.1-0.1,6.1-2.5,8.4c-2,1.9-5.1,2.6-7.9,2.6c-2.8,0-5.9-0.7-7.8-2.6c-2.4-2.3-2.5-5.3-2.5-8.4
	V95.1h6.2v12.5c0,3.1,0.2,6.4,4.2,6.4c4,0,4.2-3.3,4.2-6.4V95.1H91z"/>
<path class="st4" d="M101.9,115.7c0,2-1.6,3.7-3.7,3.7c-2,0-3.7-1.7-3.7-3.7c0-2.1,1.6-3.7,3.7-3.7
	C100.3,112.1,101.9,113.7,101.9,115.7z"/>
<path class="st4" d="M118.6,101.2c-1.1-0.9-2.6-1.6-4.1-1.6c-1.1,0-2.6,0.7-2.6,2c0,1.4,1.7,1.9,2.7,2.2l1.6,0.5
	c3.3,1,5.8,2.6,5.8,6.5c0,2.4-0.6,4.8-2.4,6.4c-1.9,1.6-4.3,2.2-6.7,2.2c-3,0-5.9-1-8.3-2.7l2.6-5c1.5,1.4,3.4,2.5,5.5,2.5
	c1.4,0,3-0.8,3-2.4c0-1.7-2.4-2.3-3.7-2.7c-3.9-1.1-6.4-2.1-6.4-6.7c0-4.8,3.4-8,8.2-8c2.4,0,5.3,0.8,7.4,2L118.6,101.2z"/>
<path class="st4" d="M132.1,115.7c0,2-1.6,3.7-3.7,3.7c-2,0-3.7-1.7-3.7-3.7c0-2.1,1.6-3.7,3.7-3.7
	C130.4,112.1,132.1,113.7,132.1,115.7z"/>
<path class="st4" d="M146.6,95.1h8.7c6.6,0,12,5.2,12,11.8c0,6.7-5.5,11.9-12,11.9h-8.7V95.1z M152.7,113.6h1.4c3.7,0,6.8-2,6.8-6.7
	c0-4.2-2.8-6.6-6.8-6.6h-1.5V113.6z"/>
<path class="st4" d="M176.4,100.3v4h6.9v5.2h-6.9v4.1h7.3v5.2h-13.5V95.1h13.5v5.2H176.4z"/>
<path class="st4" d="M187.5,95.1h9.4c5.1,0,8.6,2.4,8.6,7.8c0,5.6-3,8-8.4,8h-3.5v7.9h-6.2V95.1z M193.6,106h1.1
	c2.2,0,4.4,0,4.4-2.9c0-3-2.1-3-4.4-3h-1.1V106z"/>
<path class="st4" d="M214.3,114.7l-1.7,4.1h-6.5l9.1-23.7h6.7l8.9,23.7h-6.6l-1.5-4.1H214.3z M218.6,102.4L218.6,102.4l-2.6,7.5h5.1
	L218.6,102.4z"/>
<path class="st4" d="M252.5,118.8h-7.7l-5.8-9.1H239v9.1h-6.2V95.1h9.2c4.7,0,8.2,2.2,8.2,7.3c0,3.3-1.8,6.1-5.2,6.7L252.5,118.8z
	 M239,105.7h0.6c2,0,4.3-0.4,4.3-2.9c0-2.6-2.3-3-4.3-3H239V105.7z"/>
<path class="st4" d="M263.6,118.8h-6.2v-18.5h-5.1v-5.2h16.4v5.2h-5.1V118.8z"/>
<path class="st4" d="M273.6,95.1h6.1l4.8,12.7l5.1-12.7h6.1l3.6,23.7h-6.2l-1.7-13.6h-0.1l-5.7,13.6h-2.5l-5.4-13.6h-0.1l-2,13.6
	h-6.2L273.6,95.1z"/>
<path class="st4" d="M308,100.3v4h6.9v5.2H308v4.1h7.3v5.2h-13.5V95.1h13.5v5.2H308z"/>
<path class="st4" d="M319.2,95.1h6.2l11.3,14.5h0.1V95.1h6.2v23.7h-6.2l-11.3-14.5h-0.1v14.5h-6.2V95.1z"/>
<path class="st4" d="M356.3,118.8h-6.1v-18.5H345v-5.2h16.3v5.2h-5.1V118.8z"/>
<path class="st4" d="M399.4,106.5c0,7.7-5.5,13.1-13.1,13.1c-7.6,0-13.1-5.4-13.1-13.1c0-7.2,6.3-12.2,13.1-12.2
	C393.1,94.3,399.4,99.3,399.4,106.5z M379.6,106.5c0,4.1,3,7.1,6.7,7.1c3.7,0,6.7-3,6.7-7.1c0-3.3-3-6.3-6.7-6.3
	C382.6,100.3,379.6,103.3,379.6,106.5z"/>
<path class="st4" d="M408.4,100.3v4h6.8v5.2h-6.8v9.3h-6.2V95.1h13.6v5.2H408.4z"/>
<path class="st4" d="M439.5,118.8h-6.1v-18.5h-5.1v-5.2h16.4v5.2h-5.1V118.8z"/>
<path class="st4" d="M461.9,104.2v-9.2h6.2v23.7h-6.2v-9.7H453v9.7h-6.2V95.1h6.2v9.2H461.9z"/>
<path class="st4" d="M478.3,100.3v4h6.9v5.2h-6.9v4.1h7.3v5.2h-13.5V95.1h13.5v5.2H478.3z"/>
<path class="st4" d="M506.3,118.8h-6.2V95.1h6.2V118.8z"/>
<path class="st4" d="M510.4,95.1h6.2l11.3,14.5h0.1V95.1h6.2v23.7h-6.2l-11.3-14.5h0v14.5h-6.2V95.1z"/>
<path class="st4" d="M547.5,118.8h-6.2v-18.5h-5.1v-5.2h16.3v5.2h-5.1V118.8z"/>
<path class="st4" d="M561,100.3v4h7v5.2h-7v4.1h7.3v5.2h-13.5V95.1h13.5v5.2H561z"/>
<path class="st4" d="M591.8,118.8h-7.7l-5.8-9.1h-0.1v9.1h-6.1V95.1h9.2c4.7,0,8.2,2.2,8.2,7.3c0,3.3-1.8,6.1-5.2,6.7L591.8,118.8z
	 M578.3,105.7h0.6c2,0,4.3-0.4,4.3-2.9c0-2.6-2.3-3-4.3-3h-0.6V105.7z"/>
<path class="st4" d="M599.6,118.8h-6.2V95.1h6.2V118.8z"/>
<path class="st4" d="M628.7,106.5c0,7.7-5.5,13.1-13.1,13.1c-7.6,0-13.1-5.4-13.1-13.1c0-7.2,6.3-12.2,13.1-12.2
	C622.4,94.3,628.7,99.3,628.7,106.5z M608.9,106.5c0,4.1,3,7.1,6.7,7.1c3.7,0,6.7-3,6.7-7.1c0-3.3-3-6.3-6.7-6.3
	C611.9,100.3,608.9,103.3,608.9,106.5z"/>
<path class="st4" d="M651.3,118.8h-7.7l-5.8-9.1h-0.1v9.1h-6.2V95.1h9.2c4.7,0,8.3,2.2,8.3,7.3c0,3.3-1.8,6.1-5.2,6.7L651.3,118.8z
	 M637.7,105.7h0.6c2,0,4.3-0.4,4.3-2.9c0-2.6-2.3-3-4.3-3h-0.6V105.7z"/>
<path class="st4" d="M119.8,152.7v-21h7.8c3.7,0,6.2,1.5,6.2,5.4c0,1.9-0.6,3.4-2.3,4.3v0c3,0.4,4.3,2.4,4.3,5.4
	c0,4.4-3.7,5.8-7.6,5.8H119.8z M125.3,148.5h0.7c1.6,0,4.3,0.1,4.3-2.2c0-2.5-2.7-2.2-4.5-2.2h-0.6V148.5z M125.3,139.9h0.6
	c1.5,0,2.9-0.3,2.9-2c0-1.9-1.7-2-3.2-2h-0.4V139.9z"/>
<path class="st4" d="M156.8,131.7v11.8c0,2.7-0.1,5.4-2.2,7.4c-1.7,1.7-4.5,2.3-7,2.3c-2.4,0-5.2-0.6-6.9-2.3
	c-2.1-2-2.2-4.7-2.2-7.4v-11.8h5.5v11c0,2.7,0.2,5.7,3.7,5.7c3.5,0,3.7-3,3.7-5.7v-11H156.8z"/>
<path class="st4" d="M177.7,152.7h-6.8l-5.1-8.1h0v8.1h-5.5v-21h8.1c4.2,0,7.3,2,7.3,6.5c0,2.9-1.6,5.4-4.6,5.9L177.7,152.7z
	 M165.7,141.1h0.5c1.8,0,3.8-0.3,3.8-2.6c0-2.3-2-2.6-3.8-2.6h-0.5V141.1z"/>
<path class="st4" d="M184.6,136.3v3.5h6.1v4.6h-6.1v3.6h6.5v4.6h-11.9v-21h11.9v4.6H184.6z"/>
<path class="st4" d="M199.8,149l-1.5,3.6h-5.8l8.1-21h5.9l7.9,21h-5.8l-1.4-3.6H199.8z M203.6,138.2L203.6,138.2l-2.3,6.7h4.5
	L203.6,138.2z"/>
<path class="st4" d="M234.4,131.7v11.8c0,2.7-0.1,5.4-2.2,7.4c-1.7,1.7-4.5,2.3-7,2.3c-2.5,0-5.2-0.6-7-2.3c-2.1-2-2.2-4.7-2.2-7.4
	v-11.8h5.5v11c0,2.7,0.2,5.7,3.7,5.7c3.5,0,3.7-3,3.7-5.7v-11H234.4z"/>
<path class="st4" d="M269.5,141.8c0,6.8-4.9,11.6-11.6,11.6c-6.7,0-11.6-4.8-11.6-11.6c0-6.3,5.6-10.8,11.6-10.8
	C264,131,269.5,135.4,269.5,141.8z M252,141.8c0,3.6,2.7,6.2,5.9,6.2c3.3,0,5.9-2.6,5.9-6.2c0-2.9-2.7-5.5-5.9-5.5
	C254.7,136.3,252,138.9,252,141.8z"/>
<path class="st4" d="M277.5,136.3v3.5h6v4.6h-6v8.2h-5.5v-21h12v4.6H277.5z"/>
<path class="st4" d="M302.1,148h6.5v4.6h-12v-21h5.5V148z"/>
<path class="st4" d="M315.8,149l-1.4,3.6h-5.8l8.1-21h5.9l7.9,21h-5.8l-1.4-3.6H315.8z M319.6,138.2L319.6,138.2l-2.3,6.7h4.5
	L319.6,138.2z"/>
<path class="st4" d="M332.1,131.7h5.4l10,12.8h0.1v-12.8h5.4v21h-5.4l-10-12.8h-0.1v12.8h-5.4V131.7z"/>
<path class="st4" d="M356.6,131.7h7.7c5.9,0,10.7,4.6,10.7,10.5c0,5.9-4.8,10.5-10.7,10.5h-7.7V131.7z M362.1,148h1.2
	c3.3,0,6-1.8,6-5.9c0-3.7-2.5-5.9-6-5.9h-1.3V148z"/>
<path class="st4" d="M389.4,131.7h5.3l4.3,11.2l4.5-11.2h5.4l3.2,21h-5.5l-1.5-12.1h-0.1l-5,12.1h-2.2l-4.8-12.1H393l-1.7,12.1h-5.4
	L389.4,131.7z"/>
<path class="st4" d="M419.8,149l-1.4,3.6h-5.8l8.1-21h6l7.9,21h-5.8l-1.3-3.6H419.8z M423.6,138.2L423.6,138.2l-2.3,6.7h4.5
	L423.6,138.2z"/>
<path class="st4" d="M436.2,131.7h5.4l10,12.8h0.1v-12.8h5.4v21h-5.4l-10-12.8h0v12.8h-5.4V131.7z"/>
<path class="st4" d="M466,149l-1.4,3.6h-5.8l8-21h5.9l7.9,21h-5.8l-1.4-3.6H466z M469.8,138.2L469.8,138.2l-2.3,6.7h4.5L469.8,138.2
	z"/>
<path class="st4" d="M503.3,140.9c-0.1,3.1-0.3,5.7-2.2,8.3c-2,2.9-5.1,4.2-8.6,4.2c-6.6,0-11.2-4.5-11.2-11.1
	c0-6.8,4.6-11.3,11.4-11.3c4.3,0,7.6,1.9,9.4,5.9L497,139c-0.8-2-2.3-3.3-4.5-3.3c-3.6,0-5.4,3.4-5.4,6.6c0,3.3,1.9,6.5,5.5,6.5
	c2.4,0,4.2-1.2,4.4-3.6h-4.4v-4.3H503.3z"/>
<path class="st4" d="M511.2,136.3v3.5h6.2v4.6h-6.2v3.6h6.5v4.6h-12v-21h12v4.6H511.2z"/>
<path class="st4" d="M523.4,131.7h5.4l4.2,11.2l4.5-11.2h5.4l3.2,21h-5.5l-1.5-12.1h-0.1l-5,12.1h-2.1l-4.8-12.1H527l-1.8,12.1h-5.4
	L523.4,131.7z"/>
<path class="st4" d="M553.9,136.3v3.5h6.1v4.6h-6.1v3.6h6.5v4.6h-11.9v-21h11.9v4.6H553.9z"/>
<path class="st4" d="M563.7,131.7h5.5l10,12.8h0.1v-12.8h5.5v21h-5.5l-10-12.8h-0.1v12.8h-5.5V131.7z"/>
<path class="st4" d="M596.6,152.7h-5.5v-16.4h-4.5v-4.6h14.5v4.6h-4.5V152.7z"/>
<path class="st0" d="M360.6,431.4c-15.1-8.5-49.3-15.4-55.3-17.8c-3.5-1.4,13.6-14.2,30.2-18.8c38.3-10.5,29.6-13.3,7.9-25.4
	c-40.1-22.3-99.8-30.2-103.4-30.9c-3.6-0.6-6.4-2.1-4.2-3.6c5.7-4.1,30.6-14.8,47.7-17.2c4.2-0.6,6.9-0.8,8.7-0.8
	c1.8-1.7,3.8-3.5,5.9-5.4c-36.1,1.8-63.7,9.9-82.3,16.9c-19.4,7.3-15.7,15.7-5.4,17.6c10.3,1.8,8.5,1.8,15.7,3.6
	c7.3,1.8,13.3,4.2,13.3,4.2c21.2,4.3,41.7,15.4,52,20.9c10.3,5.4,10.6,9.4,10.6,9.4c-6.8,2.7-11.2,3-22.1,7.9
	c-68.4,30.4,0.1,41.7,21.2,50.2c25.4,10.3,20,14.5,6.7,19.3c-9.8,3.6-23.5,8.1-55,9.8c11.1,18.7,22.3,37.6,33.6,56.6
	c24.2-8.3,61.9-29.5,61.9-29.5C407.4,450.5,375.7,439.9,360.6,431.4z"/>
<g>
	<path class="st5" d="M498.7,261.2c-0.6,11.5,2.4,32.6,10.9,53.8c0.5,1.3,1.1,2.5,1.7,3.6h47c10.7-18,21.4-36.1,32.2-54.4
		c-29.8-9.4-59.4-14.9-88.3-16.4c9.9,13.4,27.4,19.4,27.4,19.4C513.9,278.7,498.7,261.2,498.7,261.2z"/>
	<path class="st5" d="M308.4,302.3c8.7-7.3,27.7-19.3,36.4-24.3l-2-1.3c-34.3-16.2-63.9-30.2-132.2-31.8c-33-0.8-65.1,6.3-84.4,11.6
		c9,15.3,18,30.6,26.9,45.8H308.4z"/>
	<path class="st5" d="M448.6,279.3c10.4-5.9,17.4-20.3,21.4-31.5c-90.1,4.6-147.9,47.8-172.6,70.8h159.6c8.9-14.8,8.6-28.4,8.6-28.4
		c-6.7,5.5-22.4,7.9-22.4,7.9c3-3,3-7.3,3-7.3c-14.5,4.2-21.2-4.2-21.2-4.2S430.4,289.6,448.6,279.3z"/>
</g>
<g>
	<path class="st1" d="M252.7,471.1c31.5-1.7,45.2-6.3,55-9.8c13.4-4.8,18.7-9-6.7-19.3c-21.1-8.6-89.6-19.8-21.2-50.2
		c10.9-4.8,15.2-5.1,22.1-7.9c0,0-0.3-3.9-10.6-9.4c-10.3-5.5-30.9-16.6-52-20.9c0,0-6-2.4-13.3-4.2c-7.3-1.8-5.4-1.8-15.7-3.6
		c-10.3-1.8-13.9-10.3,5.4-17.6c18.7-7,46.2-15.1,82.3-16.9c1.6-1.4,3.2-2.8,5-4.3H155.9c37.3,63.5,74.6,126.7,112.9,191.3
		C263.5,489.3,258.1,480.2,252.7,471.1z"/>
	<path class="st1" d="M285.9,527.1c-5.4-9-10.7-18-16-27C275.2,509,280.5,518,285.9,527.1z"/>
	<path class="st1" d="M295,314.2C295,314.2,295,314.2,295,314.2C295,314.2,295,314.2,295,314.2z"/>
	<path class="st1" d="M446.1,421.5c-25.4,17.5-49,11.5-49,11.5l3.9-4.2c-24.2,0.6-26.9-15.7-26.9-15.7c3,1.2,15.1,6.6,49.6-10.3
		c34.4-16.9,36.5-53.5,36.5-53.5c-36.9,31.4-63.2,6.9-63.2,6.9s6.3,3,36.9-15.1c8.8-5.2,15.1-11.3,19.6-17.5H285.4l4.2-4.1
		c0.8-0.8,1.6-1.6,2.5-2.5c-1.8,0-4.5,0.2-8.7,0.8c-17.1,2.5-42,13.2-47.7,17.2c-2.1,1.5,0.6,3,4.2,3.6c3.6,0.6,63.3,8.6,103.4,30.9
		c21.8,12.1,30.5,14.9-7.9,25.4c-16.6,4.5-33.8,17.3-30.2,18.8c6,2.4,40.2,9.3,55.3,17.8c15.1,8.4,46.9,19-12.4,66.8
		c0,0-37.7,21.2-61.9,29.5c9.3,15.7,18.7,31.5,28.2,47.4c8.5,14.2,24.3,22.4,43.5,22.4c3.2,0,6.5-0.2,9.7-0.7
		c11.2-1.7,26.3-6.6,34.9-20.7c3.4-5.5,6.7-11,10.1-16.4c7.2-16.8,11.6-33,11.6-33s-6.7,2.7-16.9,7.8c-32.9,16.4-52-6.7-52-6.7
		c3,0,22.4-1.8,53.2-25.9C439.5,477.7,446.1,421.5,446.1,421.5z"/>
</g>
<path class="st0" d="M453.4,235.2c6-1.8,17.5-14.5,19.4-16.9c1.1-1.4,2.7-7.1,3.9-12.5l-26.3-5.1l-0.3,1.2c-0.5,1-1.9,1.7-2.6,2.2
	c-4.8,2.9-10.4,3.3-16.1,2.4c-6.7-1.1-13.1-3.1-19.2-0.6c-1.2,0.5-3,1.2-3.7,2.7c-1.8,4.4,1.1,8.4,1.4,12.7c0,0.5-0.1,2-1.5,2.3
	c-11.5,2.5-20.5-5.4-29.8-10.5c-3.7-2-8.4-3.3-12.4-1.2c-10.3,5.4-10.7,17.5-16.6,26.9c-3.3,5.4-10.1,5.6-14.8,3.8
	c-4.6-1.9-5.4-8.1-4.2-13.3c1-4,2.2-8.4,0.7-12.1c-2.2-5.2-8.5-4.3-13-2.4c-7,3-19.3,12.6-22.8,3.2c-1.7-4.5,5.3-7.7,7.5-12.5
	c0.6-1.2,0.8-2.5,0.1-2.6c-8.7-1.3-18.8,4.3-25.9-2.1c-0.1-0.3-1.4-1.3-1.5-2.3l-164.9,31.8c4.3,7.3,8.6,14.7,12.9,22
	c19.3-5.4,52.7-12.9,87-12.1c69.4,1.6,99.5,15.8,134.3,32.3l0.3,0.2l4.7,3.1c30.6-16.2,71.2-30.4,121.6-32.7
	c1.8-5.8,2.7-9.8,2.7-9.8C463.4,243.4,453.4,235.2,453.4,235.2z"/>
<path class="st4" d="M699.9,43.5C681,7.7,652.5,7.7,652.5,7.7H85.6c-18.2,0-44.9,2.5-63.9,31.3c-22.7,34.5-3,69.7-3,69.7
	l281.9,483.3c4.7,7.5,16,26.4,58.4,27.3c42.4,0.9,59.7-30.1,59.7-30.1l285.6-482.8C705.1,104.3,718.7,79.3,699.9,43.5z M367.7,596.8
	c-3.2,0.5-6.5,0.7-9.7,0.7c-19.2,0-35-8.2-43.5-22.4c-54.8-91.8-106.6-179.7-158.6-268H303c-5.4,4.6-9.9,8.7-13.4,12.2l-4.2,4.1
	h168.2c-4.6,6.2-10.9,12.3-19.6,17.5c-30.6,18.2-36.9,15.1-36.9,15.1s26.3,24.5,63.2-6.9c0,0-2.1,36.6-36.5,53.5
	c-34.5,16.9-46.6,11.5-49.6,10.3c0,0,2.7,16.3,26.9,15.7l-3.9,4.2c0,0,23.6,6.1,49-11.5c0,0-6.6,56.2-37.5,80.4
	c-30.8,24.2-50.2,25.9-53.2,25.9c0,0,19.1,23.1,52,6.7c10.3-5.1,16.9-7.8,16.9-7.8s-4.4,16.2-11.6,33c-3.4,5.5-6.7,11-10.1,16.4
	C394,590.2,378.8,595.1,367.7,596.8z M446.1,290.8c0,0,0,4.2-3,7.3c0,0,15.7-2.4,22.4-7.9c0,0,0.3,13.7-8.6,28.4H297.3
	c24.7-23,82.5-66.2,172.6-70.8c-4,11.2-10.9,25.6-21.4,31.5c-18.1,10.3-23.6,7.3-23.6,7.3S431.6,295.1,446.1,290.8z M308.4,302.3
	H153.1c-9-15.3-17.9-30.5-26.9-45.8c19.2-5.3,51.3-12.4,84.4-11.6c68.3,1.6,98,15.6,132.2,31.8l2,1.3
	C336.1,283,317.1,295,308.4,302.3z M502.2,247.8c28.9,1.5,58.5,7,88.3,16.4c-10.8,18.3-21.5,36.4-32.2,54.4h-47
	c-0.6-1.1-1.2-2.3-1.7-3.6c-8.5-21.2-11.5-42.3-10.9-53.8c0,0,15.1,17.5,30.8,6C529.6,267.2,512,261.3,502.2,247.8z M514.5,323.5
	h40.9c-11.6,19.5-23.1,38.8-34.6,58.1c-6.6-6.6-14-18.9-13-41.1c0,0,21.8,13.3,30.8-6.7C538.6,333.8,524.2,335.5,514.5,323.5z
	 M662.9,140.5l-0.1,0.1c-23.8,40.9-47,80.6-69.9,119.4c-31.7-10.1-63.2-15.9-93.9-17.1c-1.2-2.4-2.1-4.9-2.7-7.6
	c-4.8-22.4-7.3-28.4-7.3-35.7c0,0,6,0.6,8.5,4.2c0,0,6.1,1.7-9-14.6c0,0-2.3-6.7-1.9-15.4c0.3-6.2-1.5-6.8-2-6.8l-1.7,1.2
	c-3,3-1.2,8.8-2.8,13.7c0,0-10.3,8.6-10.9,15.9c0,0,3-1.2,6.6-4.2c3.6-3,2.4-1.2,2.4,3c0,4.2-3.6,19.4-5.4,21.8
	c-1.8,2.4-13.3,15.1-19.4,16.9c0,0,10,8.2,20.9-2.1c0,0-0.9,4-2.7,9.8c-50.4,2.3-91,16.4-121.6,32.7l-4.7-3.1l-0.3-0.2
	c-34.8-16.5-64.9-30.7-134.3-32.3c-34.3-0.8-67.7,6.7-87,12.1C103.3,217.4,82.8,182.5,62,147l-5.1-8.7c-8-15.2-7.5-35.2,1.4-50
	C65.5,76.4,76.7,69.8,90,69.8h0.2C198.6,70,350.6,70,459.1,70c93.8,0,164.1,0,164.5,0h0.2c23.4,0,34.8,14.1,39.5,22.5
	C671.6,107.6,671.5,126.4,662.9,140.5z"/>
<g>
	<path class="st6" d="M83.6,50.2l0-21.1l5.5,0l8,10.8c0.1,0.2,0.4,0.7,0.8,1.3c0.3,0.7,0.7,1.5,1.2,2.4c-0.1-0.9-0.2-1.7-0.2-2.3
		c-0.1-0.7-0.1-1.3-0.1-1.8l0-10.4l5.5,0l0,21.1l-5.5,0l-7.9-10.9c-0.2-0.2-0.4-0.7-0.8-1.3c-0.3-0.7-0.7-1.5-1.1-2.4
		c0.1,0.9,0.2,1.7,0.2,2.3c0.1,0.7,0.1,1.3,0.1,1.8l0,10.4L83.6,50.2z"/>
	<path class="st6" d="M106.3,50.2l7.3-21.1l7.2,0l7.3,21.1l-5.7,0l-1.1-3.8l-8.2,0l-1.1,3.8L106.3,50.2z M114.3,42.3l5.7,0l-2.1-7
		c-0.1-0.2-0.2-0.5-0.3-1c-0.1-0.5-0.3-1.1-0.4-1.8c-0.1,0.5-0.2,1-0.4,1.5c-0.1,0.5-0.2,0.9-0.4,1.4L114.3,42.3z"/>
	<path class="st6" d="M131.9,50.2l0-16.1l-4.7,0l0-5l15.2,0l0,5l-4.7,0l0,16.1L131.9,50.2z"/>
	<path class="st6" d="M145.3,50.2l0-21.1l5.8,0l0,21.1L145.3,50.2z"/>
	<path class="st6" d="M177.3,39.8c0,1.5-0.3,2.9-0.8,4.3c-0.6,1.3-1.4,2.5-2.4,3.6c-1.1,1-2.3,1.8-3.7,2.4c-1.4,0.6-2.8,0.8-4.3,0.8
		c-1.5,0-2.9-0.3-4.3-0.8c-1.4-0.6-2.6-1.4-3.6-2.4c-1.1-1-1.9-2.2-2.5-3.6c-0.6-1.3-0.8-2.7-0.8-4.2c0-1.5,0.3-2.9,0.8-4.3
		c0.6-1.3,1.4-2.5,2.5-3.6c1.1-1,2.3-1.8,3.6-2.4c1.4-0.6,2.8-0.8,4.3-0.8c1.5,0,2.9,0.3,4.3,0.8c1.4,0.6,2.6,1.4,3.7,2.4
		c1.1,1,1.9,2.2,2.4,3.6C177.1,36.9,177.3,38.3,177.3,39.8z M166.1,46c1.6,0,2.9-0.6,4-1.8c1-1.2,1.6-2.6,1.6-4.4
		c0-1.8-0.5-3.2-1.6-4.4c-1.1-1.2-2.4-1.8-3.9-1.8c-1.6,0-2.9,0.6-4,1.8c-1,1.2-1.6,2.6-1.6,4.4c0,1.8,0.5,3.3,1.5,4.4
		C163.1,45.4,164.5,46,166.1,46z"/>
	<path class="st6" d="M180.9,50.3l0-21.1l5.5,0l7.9,10.8c0.1,0.2,0.4,0.7,0.8,1.3c0.4,0.7,0.7,1.5,1.2,2.4c-0.1-0.9-0.2-1.7-0.2-2.3
		c-0.1-0.7-0.1-1.3-0.1-1.8l0-10.4l5.5,0l0,21.1l-5.5,0l-7.9-10.9c-0.2-0.2-0.4-0.7-0.8-1.3c-0.3-0.7-0.7-1.5-1.1-2.4
		c0.1,0.9,0.2,1.7,0.2,2.3c0.1,0.7,0.1,1.3,0.1,1.8l0,10.4L180.9,50.3z"/>
	<path class="st6" d="M203.6,50.3l7.3-21.1l7.2,0l7.3,21.1l-5.7,0l-1.1-3.8l-8.2,0l-1.1,3.8L203.6,50.3z M211.6,42.4l5.7,0l-2.1-7
		c-0.1-0.2-0.2-0.5-0.3-1c-0.1-0.5-0.3-1.1-0.4-1.8c-0.1,0.5-0.2,1-0.4,1.5c-0.1,0.5-0.2,0.9-0.4,1.3L211.6,42.4z"/>
	<path class="st6" d="M227.3,50.3l0-21.1l5.7,0l0,16.1l7.1,0l0,4.9L227.3,50.3z"/>
	<path class="st6" d="M253.2,43.5c0.9,1,1.7,1.7,2.5,2.2c0.8,0.5,1.7,0.7,2.5,0.7c0.8,0,1.4-0.2,1.9-0.6c0.5-0.4,0.7-0.9,0.7-1.6
		c0-0.7-0.2-1.2-0.6-1.6c-0.4-0.4-1.4-0.8-2.9-1.2c-2.1-0.6-3.5-1.3-4.4-2.2c-0.9-0.9-1.3-2.1-1.3-3.7c0-2,0.7-3.7,2-4.9
		c1.3-1.3,3.1-1.9,5.2-1.9c1.2,0,2.3,0.2,3.3,0.5c1,0.3,2,0.8,3,1.4l-1.8,4.1c-0.6-0.6-1.3-1-2-1.3c-0.7-0.3-1.4-0.4-2-0.4
		c-0.7,0-1.2,0.2-1.7,0.5c-0.4,0.3-0.6,0.8-0.6,1.3c0,0.5,0.2,0.9,0.6,1.3c0.4,0.3,1.1,0.6,2.2,0.9c0.1,0,0.2,0,0.3,0.1
		c2.3,0.6,3.9,1.3,4.6,2.1c0.5,0.5,0.9,1.1,1.1,1.9c0.3,0.7,0.4,1.5,0.4,2.4c0,2.2-0.7,4-2.2,5.4c-1.5,1.4-3.4,2-5.9,2
		c-1.5,0-2.8-0.3-4-0.8c-1.2-0.5-2.4-1.3-3.5-2.4L253.2,43.5z"/>
	<path class="st6" d="M273.1,50.4l0-9.6l-7.4-11.5l6.6,0l2.8,5.4c0,0,0.1,0.1,0.1,0.2c0.3,0.6,0.5,1.1,0.6,1.6
		c0.1-0.5,0.3-1,0.6-1.6c0.1-0.1,0.1-0.2,0.1-0.2l2.8-5.4l6.6,0l-7.4,11.4l0,9.6L273.1,50.4z"/>
	<path class="st6" d="M287.9,43.6c0.9,1,1.7,1.7,2.5,2.2c0.8,0.5,1.7,0.7,2.5,0.7c0.8,0,1.4-0.2,1.9-0.6c0.5-0.4,0.7-0.9,0.7-1.6
		c0-0.7-0.2-1.2-0.6-1.6c-0.4-0.4-1.4-0.8-2.9-1.2c-2.1-0.6-3.5-1.3-4.4-2.2c-0.9-0.9-1.3-2.1-1.3-3.7c0-2,0.7-3.7,2-4.9
		c1.3-1.3,3.1-1.9,5.2-1.9c1.2,0,2.3,0.2,3.3,0.5c1,0.3,2,0.8,3,1.4l-1.8,4.1c-0.7-0.6-1.3-1-2-1.3c-0.7-0.3-1.4-0.4-2-0.4
		c-0.7,0-1.3,0.2-1.7,0.5c-0.4,0.3-0.6,0.8-0.6,1.3c0,0.5,0.2,0.9,0.6,1.3c0.4,0.3,1.1,0.6,2.2,0.9c0.1,0,0.2,0,0.3,0.1
		c2.3,0.6,3.9,1.3,4.6,2.1c0.5,0.5,0.9,1.1,1.1,1.9c0.3,0.7,0.4,1.5,0.4,2.4c0,2.2-0.7,4-2.2,5.4c-1.5,1.4-3.4,2-5.9,2
		c-1.5,0-2.8-0.3-4-0.8c-1.2-0.5-2.4-1.3-3.5-2.3L287.9,43.6z"/>
	<path class="st6" d="M307.1,50.4l0-16.1l-4.7,0l0-5l15.2,0l0,5l-4.7,0l0,16.1L307.1,50.4z"/>
	<path class="st6" d="M320.4,50.4l0-21.1l12.9,0l0,4.6l-7.3,0l0,3.7l6.9,0l0,4.5l-6.9,0l0,3.6l7.3,0l0,4.7L320.4,50.4z"/>
	<path class="st6" d="M361.3,50.5l-5.4,0l-1.2-9.1c-0.1-0.6-0.2-1.4-0.2-2.1c-0.1-0.8-0.1-1.6-0.2-2.6c-0.1,0.9-0.4,2-0.8,3.3
		c-0.1,0.3-0.2,0.5-0.2,0.6l-2.9,9.9l-3.8,0l-2.9-9.9c0-0.1-0.1-0.3-0.2-0.6c-0.4-1.3-0.7-2.4-0.8-3.3c-0.1,0.8-0.1,1.6-0.2,2.4
		c-0.1,0.8-0.2,1.6-0.3,2.3l-1.2,9.1l-5.3,0l3.3-21.1l5.7,0l3.2,10.9c0,0.1,0.1,0.2,0.1,0.4c0.3,1,0.5,1.8,0.6,2.5
		c0-0.4,0.1-0.8,0.2-1.2c0.1-0.5,0.2-1,0.4-1.6l3.2-10.8l5.7,0L361.3,50.5z"/>
	<path class="st6" d="M395.2,40c0,1.5-0.3,2.9-0.8,4.3c-0.6,1.3-1.4,2.5-2.4,3.6c-1.1,1-2.3,1.8-3.7,2.4c-1.4,0.6-2.8,0.8-4.3,0.8
		c-1.5,0-2.9-0.3-4.3-0.8c-1.4-0.6-2.6-1.4-3.6-2.4c-1.1-1-1.9-2.2-2.5-3.6c-0.6-1.3-0.8-2.8-0.8-4.2c0-1.5,0.3-2.9,0.8-4.2
		c0.6-1.3,1.4-2.5,2.5-3.6c1-1,2.3-1.8,3.6-2.4c1.4-0.6,2.8-0.8,4.3-0.8c1.5,0,2.9,0.3,4.3,0.8c1.4,0.6,2.6,1.4,3.7,2.4
		c1.1,1,1.9,2.2,2.4,3.6C394.9,37.1,395.2,38.5,395.2,40z M384,46.2c1.6,0,2.9-0.6,4-1.8c1-1.2,1.6-2.6,1.6-4.4
		c0-1.8-0.5-3.2-1.6-4.4c-1.1-1.2-2.4-1.8-3.9-1.8c-1.6,0-2.9,0.6-4,1.8c-1,1.2-1.6,2.6-1.6,4.4c0,1.8,0.5,3.3,1.5,4.4
		C381,45.6,382.3,46.2,384,46.2z"/>
	<path class="st6" d="M398.8,50.5l0-21.1l12.9,0l0,4.6l-7.3,0l0,3.7l6.9,0l0,4.5l-6.9,0l0,8.3L398.8,50.5z"/>
	<path class="st6" d="M429.4,50.5l-5.4,0l0-21.1l6,0c2.4,0,4,0.1,5,0.4c0.9,0.2,1.8,0.6,2.4,1.2c0.8,0.6,1.4,1.4,1.8,2.4
		c0.4,1,0.6,2,0.6,3.2c0,1.3-0.2,2.4-0.6,3.3c-0.4,1-1,1.7-1.8,2.4c-0.6,0.5-1.3,0.8-2.1,1c-0.8,0.2-2.1,0.3-3.9,0.3l-1,0h-1
		L429.4,50.5z M429.5,38.9h1.1c1.4,0,2.3-0.2,2.9-0.6c0.5-0.4,0.8-1,0.8-1.9c0-0.9-0.3-1.5-0.8-1.9c-0.5-0.4-1.5-0.6-2.9-0.6h-1.1
		L429.5,38.9z"/>
	<path class="st6" d="M442.6,29.5l5.7,0l0,10.2c0,1.5,0,2.6,0.1,3.2c0.1,0.7,0.2,1.2,0.4,1.6c0.2,0.5,0.6,0.9,1.2,1.2
		c0.5,0.3,1.2,0.4,2,0.4c0.8,0,1.5-0.1,2-0.4c0.5-0.3,0.9-0.7,1.2-1.2c0.2-0.4,0.3-1,0.4-1.6c0.1-0.7,0.1-1.7,0.1-3.2l0-1.4l0-8.8
		l5.7,0l0,11.1c0,2.3-0.1,4-0.4,5.1c-0.3,1.1-0.8,2-1.4,2.8c-0.7,0.9-1.7,1.5-3,1.9c-1.3,0.4-2.8,0.6-4.6,0.6
		c-1.8,0-3.3-0.2-4.6-0.6c-1.3-0.4-2.2-1.1-3-1.9c-0.6-0.8-1.1-1.7-1.4-2.8c-0.3-1.1-0.4-2.8-0.4-5.1l0-2.2L442.6,29.5z"/>
	<path class="st6" d="M465.7,50.6l0-21.1l5.8,0c2.4,0,4,0.1,5,0.2c0.9,0.2,1.8,0.4,2.4,0.8c0.8,0.4,1.4,1,1.8,1.7
		c0.4,0.7,0.6,1.6,0.6,2.5c0,1.2-0.3,2.2-0.9,2.9c-0.6,0.7-1.6,1.2-2.9,1.6c1.5,0.1,2.7,0.6,3.5,1.6c0.8,0.9,1.3,2.2,1.3,3.8
		c0,1.1-0.2,2.1-0.7,3c-0.5,0.9-1.2,1.5-2,2c-0.7,0.4-1.6,0.7-2.7,0.8c-1.1,0.2-2.8,0.2-5.2,0.2L465.7,50.6z M471,46.3l2,0
		c1.4,0,2.3-0.2,2.9-0.5c0.6-0.3,0.8-0.9,0.8-1.7c0-0.9-0.3-1.5-0.8-1.9c-0.5-0.4-1.5-0.5-2.9-0.5l-2.1,0L471,46.3z M471.1,37.9h1.1
		c1.4,0,2.4-0.2,2.9-0.5c0.5-0.3,0.8-0.9,0.8-1.6c0-0.8-0.2-1.4-0.7-1.7c-0.5-0.3-1.4-0.5-2.9-0.5h-1.2L471.1,37.9z"/>
	<path class="st6" d="M485.7,50.6l0-21.1l5.7,0l0,16.1l7.1,0l0,4.9L485.7,50.6z"/>
	<path class="st6" d="M501.5,50.6l0-21.1l5.8,0l0,21.1L501.5,50.6z"/>
	<path class="st6" d="M527.3,30.4l0,6.3c-0.8-0.9-1.6-1.5-2.4-1.9c-0.8-0.4-1.6-0.6-2.5-0.6c-1.7,0-3,0.6-4,1.7
		c-1,1.1-1.5,2.6-1.5,4.4c0,1.7,0.5,3.1,1.6,4.2c1,1.1,2.4,1.7,4,1.7c0.9,0,1.7-0.2,2.5-0.6c0.8-0.4,1.6-1.1,2.4-1.9l0,6.3
		c-0.9,0.4-1.8,0.8-2.7,1c-0.9,0.2-1.8,0.3-2.7,0.3c-1.2,0-2.2-0.1-3.2-0.4c-1-0.3-1.9-0.7-2.7-1.2c-1.6-1.1-2.8-2.4-3.6-4
		c-0.8-1.6-1.2-3.4-1.2-5.4c0-1.6,0.3-3.1,0.8-4.4c0.5-1.3,1.3-2.5,2.4-3.6c1-1,2.1-1.8,3.4-2.3c1.2-0.5,2.6-0.8,4.2-0.8
		c0.9,0,1.8,0.1,2.7,0.3C525.4,29.6,526.3,29.9,527.3,30.4z"/>
	<path class="st6" d="M539.7,50.6l0-21.1l5.7,0l0,16.1l7.1,0l0,4.9L539.7,50.6z"/>
	<path class="st6" d="M552.9,50.6l7.3-21.1l7.2,0l7.3,21.1l-5.7,0l-1.1-3.8l-8.2,0l-1.1,3.8L552.9,50.6z M561,42.8l5.7,0l-2.1-7
		c-0.1-0.2-0.2-0.5-0.3-1c-0.1-0.5-0.3-1.1-0.4-1.8c-0.1,0.5-0.2,1-0.4,1.5c-0.1,0.5-0.2,0.9-0.4,1.4L561,42.8z"/>
	<path class="st6" d="M576.7,50.7l0-21.1l5.5,0l7.9,10.8c0.1,0.2,0.4,0.7,0.8,1.3c0.3,0.7,0.7,1.5,1.2,2.4c-0.1-0.9-0.2-1.7-0.2-2.3
		c0-0.7-0.1-1.3-0.1-1.8l0-10.4l5.5,0l0,21.1l-5.5,0l-7.9-10.9c-0.2-0.2-0.4-0.7-0.8-1.3c-0.4-0.7-0.7-1.5-1.1-2.4
		c0.1,0.9,0.2,1.7,0.2,2.3c0.1,0.7,0.1,1.3,0.1,1.8l0,10.4L576.7,50.7z"/>
	<path class="st6" d="M601.8,50.7l0-21.1l4.4,0c3.3,0,5.6,0.2,6.9,0.5c1.4,0.3,2.5,0.8,3.6,1.5c1.3,0.9,2.3,2.1,3,3.6
		c0.7,1.5,1,3.1,1,5c0,1.9-0.3,3.5-1,5c-0.7,1.5-1.7,2.6-3,3.6c-1,0.7-2.2,1.2-3.5,1.5c-1.3,0.3-3.3,0.5-6.1,0.4h-1L601.8,50.7z
		 M607.5,46h1c2.3,0,3.9-0.5,4.9-1.4c1-0.9,1.6-2.4,1.6-4.4c0-2-0.5-3.5-1.5-4.4c-1-0.9-2.7-1.4-4.9-1.4l-1,0L607.5,46z"/>
	<path class="st6" d="M625.3,43.9c0.8,1,1.7,1.7,2.5,2.2c0.8,0.5,1.7,0.7,2.5,0.7c0.8,0,1.4-0.2,1.9-0.6c0.5-0.4,0.7-0.9,0.7-1.6
		c0-0.7-0.2-1.2-0.6-1.6c-0.4-0.4-1.4-0.8-2.9-1.2c-2.1-0.6-3.5-1.3-4.4-2.2c-0.8-0.9-1.3-2.1-1.3-3.7c0-2,0.7-3.7,2-4.9
		c1.4-1.3,3.1-1.9,5.3-1.9c1.2,0,2.3,0.2,3.3,0.5c1,0.3,2,0.8,3,1.4l-1.8,4.1c-0.6-0.6-1.3-1-2-1.3c-0.7-0.3-1.4-0.4-2-0.4
		c-0.7,0-1.3,0.2-1.7,0.5c-0.4,0.3-0.6,0.8-0.7,1.3c0,0.5,0.2,0.9,0.6,1.3c0.4,0.3,1.1,0.6,2.2,0.9c0.1,0,0.1,0,0.3,0.1
		c2.3,0.6,3.9,1.3,4.6,2.1c0.5,0.5,0.9,1.1,1.1,1.9c0.3,0.7,0.4,1.5,0.4,2.4c0,2.2-0.7,4-2.2,5.4c-1.5,1.4-3.4,2-5.9,2
		c-1.5,0-2.8-0.3-4-0.8c-1.2-0.5-2.4-1.3-3.5-2.4L625.3,43.9z"/>
</g>
</svg>
